<svg xmlns="http://www.w3.org/2000/svg" width="64" height="64" enable-background="new 0 0 64 64" viewBox="0 0 64 64" id="biology"><path fill="#2B2F64" d="M63.088,43.307c0-4.102-1.222-7.922-3.296-11.151c-0.01,0-0.021-0.01-0.021-0.02
		c-3.685-5.692-10.074-9.474-17.348-9.474c-2.918,0-5.683,0.611-8.203,1.706c-1.562-1.066-3.259-1.92-5.072-2.531V6.216h0.592
		c1.658,0,3.017-1.358,3.017-3.016V3.016C32.757,1.357,31.398,0,29.74,0H15.33c-1.658,0-3.005,1.357-3.005,3.016V3.2
		c0,1.658,1.347,3.016,3.005,3.016h0.592v15.466C7.04,24.446,0.901,32.727,0.901,42.075c0,11.792,9.591,21.382,21.372,21.382
		c3.414,0,6.662-0.786,9.688-2.327C35.035,62.943,38.604,64,42.424,64c7.264,0,13.654-3.772,17.339-9.455
		c0.009-0.009,0.02-0.029,0.029-0.039c2.074-3.229,3.296-7.05,3.296-11.161c0,0,0.011-0.01,0.011-0.02
		C63.099,43.326,63.088,43.316,63.088,43.307z M37.081,25.387c-1.377,1.532-2.561,3.637-3.452,6.177h-5.76
		C30.216,28.664,33.416,26.482,37.081,25.387z M31.806,42.356h-8.067c0.175-3.239,1.153-6.255,2.773-8.854h6.506
		C32.3,36.141,31.884,39.147,31.806,42.356z M33.018,53.159h-6.506c-1.62-2.599-2.599-5.624-2.773-8.863h8.067
		C31.884,47.515,32.3,50.521,33.018,53.159z M15.33,4.276c-0.591,0-1.065-0.485-1.065-1.077V3.016c0-0.591,0.475-1.076,1.065-1.076
		h14.41c0.592,0,1.077,0.485,1.077,1.076V3.2c0,0.592-0.485,1.077-1.077,1.077H15.33z M22.273,61.518
		c-10.715,0-19.433-8.717-19.433-19.442c0-8.727,5.887-16.427,14.313-18.735c0.417-0.106,0.707-0.494,0.707-0.931V6.216h9.348v16.33
		c0,0.427,0.281,0.805,0.688,0.931c1.532,0.456,2.978,1.095,4.326,1.9c-2.899,1.648-5.354,3.976-7.157,6.769
		c0,0.01-0.01,0.01-0.01,0.01c-2.074,3.219-3.296,7.05-3.307,11.161v0.01c0,0.01,0,0.01,0,0.02c0,4.111,1.232,7.932,3.307,11.161
		c0.01,0.01,0.021,0.019,0.021,0.029c1.338,2.065,3.034,3.869,5.002,5.343C27.627,60.965,25.009,61.518,22.273,61.518z
		 M27.869,55.098h5.76c0.892,2.541,2.075,4.645,3.452,6.177C33.416,60.18,30.226,57.998,27.869,55.098z M41.454,61.935
		c-2.278-0.572-4.324-3.132-5.74-6.836h5.74V61.935z M41.454,53.159h-6.38c-0.776-2.618-1.251-5.644-1.329-8.863h7.709V53.159z
		 M41.454,42.356h-7.709c0.078-3.209,0.553-6.235,1.329-8.854h6.38V42.356z M41.454,31.563h-5.74
		c1.416-3.704,3.462-6.254,5.74-6.836V31.563z M56.979,31.563h-5.76c-0.892-2.54-2.076-4.645-3.453-6.177
		C51.433,26.482,54.623,28.664,56.979,31.563z M43.394,24.727c2.278,0.582,4.325,3.132,5.741,6.836h-5.741V24.727z M43.394,33.503
		h6.381c0.775,2.618,1.251,5.644,1.329,8.854h-7.71V33.503z M43.394,44.296h7.71c-0.078,3.219-0.554,6.245-1.329,8.863h-6.381
		V44.296z M43.394,61.935v-6.836h5.741C47.719,58.803,45.672,61.362,43.394,61.935z M47.767,61.275
		c1.377-1.532,2.562-3.636,3.453-6.177h5.76C54.623,57.998,51.433,60.18,47.767,61.275z M58.337,53.159h-6.516
		c0.727-2.637,1.144-5.644,1.222-8.863h8.058C60.936,47.535,59.947,50.56,58.337,53.159z M53.043,42.356
		c-0.078-3.209-0.495-6.216-1.222-8.854h6.516c1.61,2.599,2.599,5.614,2.764,8.854H53.043z"></path><path fill="#4FBEE6" d="M56.979 55.098c-2.356 2.899-5.547 5.082-9.213 6.177 1.377-1.532 2.562-3.636 3.453-6.177H56.979zM49.135 55.098c-1.416 3.705-3.463 6.264-5.741 6.836v-6.836H49.135zM41.454 55.098v6.836c-2.278-.572-4.324-3.132-5.74-6.836H41.454zM37.081 61.275c-3.665-1.095-6.855-3.277-9.212-6.177h5.76C34.521 57.639 35.704 59.743 37.081 61.275zM37.081 25.386c-1.377 1.532-2.561 3.637-3.452 6.177h-5.76C30.216 28.664 33.416 26.482 37.081 25.386zM33.018 33.503c-.718 2.638-1.134 5.644-1.212 8.853h-8.067c.175-3.239 1.153-6.254 2.773-8.853H33.018zM33.018 53.159h-6.506c-1.62-2.599-2.599-5.624-2.773-8.863h8.067C31.884 47.515 32.3 50.521 33.018 53.159zM41.454 44.295v8.863h-6.38c-.776-2.619-1.251-5.644-1.329-8.863H41.454zM41.454 33.503v8.853h-7.709c.078-3.209.553-6.235 1.329-8.853H41.454zM41.454 24.727v6.836h-5.74C37.13 27.859 39.176 25.309 41.454 24.727zM56.979 31.563h-5.76c-.892-2.541-2.076-4.645-3.453-6.177C51.433 26.482 54.623 28.664 56.979 31.563zM49.135 31.563h-5.741v-6.836C45.672 25.309 47.719 27.859 49.135 31.563zM51.104 44.295c-.078 3.22-.554 6.245-1.329 8.863h-6.381v-8.863H51.104zM61.101 44.295c-.165 3.239-1.153 6.264-2.764 8.863h-6.516c.727-2.638 1.144-5.644 1.222-8.863H61.101zM61.101 42.356h-8.058c-.078-3.209-.495-6.215-1.222-8.853h6.516C59.947 36.102 60.936 39.117 61.101 42.356zM51.104 42.356h-7.71v-8.853h6.381C50.55 36.121 51.025 39.146 51.104 42.356z"></path><path fill="#B8DAE7" d="M30.817,3.016V3.2c0,0.591-0.485,1.076-1.077,1.076H15.33c-0.591,0-1.065-0.485-1.065-1.076V3.016
		c0-0.591,0.475-1.076,1.065-1.076h14.41C30.332,1.939,30.817,2.424,30.817,3.016z"></path><path fill="#D7E9F1" d="M30.079,59.879c-2.452,1.085-5.07,1.639-7.806,1.639c-10.715,0-19.433-8.718-19.433-19.443
		c0-8.727,5.887-16.426,14.313-18.734c0.417-0.106,0.707-0.494,0.707-0.931V6.215h9.348v16.33c0,0.427,0.281,0.805,0.688,0.931
		c1.532,0.455,2.978,1.095,4.326,1.9c-2.899,1.648-5.354,3.976-7.157,6.769c0,0.009-0.01,0.009-0.01,0.009
		c-2.074,3.22-3.296,7.05-3.307,11.162v0.009c0,0.01,0,0.01,0,0.02c0,4.112,1.232,7.932,3.307,11.162
		c0.01,0.009,0.021,0.019,0.021,0.029C26.415,56.601,28.111,58.405,30.079,59.879z"></path></svg>