<svg xmlns="http://www.w3.org/2000/svg" id="calculator" x="0" y="0" version="1.1" viewBox="0 0 64 65" xml:space="preserve"><path fill="none" stroke="#f16723" stroke-linecap="round" stroke-linejoin="round" stroke-miterlimit="10" d="M15.6 14.4h1.6M16.4 15.2v-1.6M55.9 15.7h1.5M56.7 16.5v-1.6"></path><circle cx="43.9" cy="13.2" r=".3" fill="#231f20"></circle><circle cx="14.1" cy="20.3" r=".3" fill="#231f20"></circle><circle cx="5.9" cy="21.9" r=".3" fill="#231f20"></circle><circle cx="58.5" cy="23" r=".9" fill="none" stroke="#fbd108" stroke-linecap="round" stroke-linejoin="round" stroke-miterlimit="10"></circle><circle cx="9.6" cy="18.2" r=".9" fill="none" stroke="#fbd108" stroke-linecap="round" stroke-linejoin="round" stroke-miterlimit="10"></circle><circle cx="50.9" cy="19.2" r=".5" fill="none" stroke="#4d9ad4" stroke-linecap="round" stroke-linejoin="round" stroke-miterlimit="10"></circle><path fill="#e7d0a8" d="M36.1 31v16.3c0 2.7-2.2 4.9-4.9 4.9H9.9C7.2 52.2 5 50 5 47.3V31c0-2.7 2.2-4.9 4.9-4.9h21.3c2.7 0 4.9 2.2 4.9 4.9z"></path><path fill="#fff" d="M33.3 37.5v3.2c0 6.3-5.1 11.5-11.5 11.5H13C6.6 52.2 1.5 47 1.5 40.7v-3.2C1.5 31.2 6.6 26 13 26h8.8c6.3.1 11.5 5.2 11.5 11.5z"></path><path fill="#ffe4b8" d="M34.1 30.8v16.7c0 2.6-2.1 4.7-4.7 4.7H7.7c-2.6 0-4.7-2.1-4.7-4.7V30.8c0-2.6 2.1-4.7 4.7-4.7h21.7c2.6 0 4.7 2.1 4.7 4.7z"></path><path fill="none" stroke="#231f20" stroke-linecap="round" stroke-linejoin="round" stroke-miterlimit="10" stroke-width="1.5" d="M36.1 31v16.2c0 2.7-2.2 5-5 5H6.5c-2.7 0-5-2.2-5-5V31c0-2.7 2.2-5 5-5h24.7c2.7 0 4.9 2.3 4.9 5z"></path><path fill="#fff" d="M32.5 30.9v.7h-31v-.7c0-2.7 2.2-4.8 4.8-4.8h21.4c2.7 0 4.8 2.1 4.8 4.8z"></path><path fill="#ce316a" d="M36.1 30.9v.7h-31v-.7c0-2.7 2.2-4.8 4.8-4.8h21.4c2.7 0 4.8 2.1 4.8 4.8z"></path><path fill="#ef5e87" d="M34.1 30.9v.7h-31v-.7c0-2.7 2.2-4.8 4.8-4.8h21.5c2.6 0 4.7 2.1 4.7 4.8z"></path><path fill="none" stroke="#231f20" stroke-linecap="round" stroke-linejoin="round" stroke-miterlimit="10" stroke-width="1.5" d="M36.1 30.9v.7H1.5v-.7c0-2.7 2.2-4.8 4.8-4.8h25c2.6 0 4.8 2.1 4.8 4.8z"></path><path fill="#fff" d="M31.8 26.4V25c0-.4.3-.6.6-.6h.2c.4 0 .6.3.6.6v1.4c0 .4-.3.6-.6.6h-.2c-.3 0-.6-.3-.6-.6z"></path><path fill="none" stroke="#231f20" stroke-linecap="round" stroke-linejoin="round" stroke-miterlimit="10" stroke-width="1.5" d="M31.8 26.4V25c0-.4.3-.6.6-.6h.2c.4 0 .6.3.6.6v1.4c0 .4-.3.6-.6.6h-.2c-.3 0-.6-.3-.6-.6z"></path><path fill="#fff" d="M27.2 26.4V25c0-.4.3-.6.6-.6h.2c.4 0 .6.3.6.6v1.4c0 .4-.3.6-.6.6h-.2c-.3 0-.6-.3-.6-.6z"></path><path fill="none" stroke="#231f20" stroke-linecap="round" stroke-linejoin="round" stroke-miterlimit="10" stroke-width="1.5" d="M27.2 26.4V25c0-.4.3-.6.6-.6h.2c.4 0 .6.3.6.6v1.4c0 .4-.3.6-.6.6h-.2c-.3 0-.6-.3-.6-.6z"></path><path fill="#fff" d="M22.7 26.4V25c0-.4.3-.6.6-.6h.2c.4 0 .6.3.6.6v1.4c0 .4-.3.6-.6.6h-.2c-.4 0-.6-.3-.6-.6z"></path><path fill="none" stroke="#231f20" stroke-linecap="round" stroke-linejoin="round" stroke-miterlimit="10" stroke-width="1.5" d="M22.7 26.4V25c0-.4.3-.6.6-.6h.2c.4 0 .6.3.6.6v1.4c0 .4-.3.6-.6.6h-.2c-.4 0-.6-.3-.6-.6z"></path><path fill="#fff" d="M18.1 26.4V25c0-.4.3-.6.6-.6h.2c.4 0 .6.3.6.6v1.4c0 .4-.3.6-.6.6h-.2c-.3 0-.6-.3-.6-.6z"></path><path fill="none" stroke="#231f20" stroke-linecap="round" stroke-linejoin="round" stroke-miterlimit="10" stroke-width="1.5" d="M18.1 26.4V25c0-.4.3-.6.6-.6h.2c.4 0 .6.3.6.6v1.4c0 .4-.3.6-.6.6h-.2c-.3 0-.6-.3-.6-.6z"></path><path fill="#fff" d="M13.5 26.4V25c0-.4.3-.6.6-.6h.2c.4 0 .6.3.6.6v1.4c0 .4-.3.6-.6.6h-.2c-.3 0-.6-.3-.6-.6z"></path><path fill="none" stroke="#231f20" stroke-linecap="round" stroke-linejoin="round" stroke-miterlimit="10" stroke-width="1.5" d="M13.5 26.4V25c0-.4.3-.6.6-.6h.2c.4 0 .6.3.6.6v1.4c0 .4-.3.6-.6.6h-.2c-.3 0-.6-.3-.6-.6z"></path><path fill="#fff" d="M8.9 26.4V25c0-.4.3-.6.6-.6h.2c.4 0 .6.3.6.6v1.4c0 .4-.3.6-.6.6h-.2c-.3 0-.6-.3-.6-.6z"></path><path fill="none" stroke="#231f20" stroke-linecap="round" stroke-linejoin="round" stroke-miterlimit="10" stroke-width="1.5" d="M8.9 26.4V25c0-.4.3-.6.6-.6h.2c.4 0 .6.3.6.6v1.4c0 .4-.3.6-.6.6h-.2c-.3 0-.6-.3-.6-.6z"></path><path fill="#fff" d="M4.3 26.4V25c0-.4.3-.6.6-.6h.2c.4 0 .6.3.6.6v1.4c0 .4-.3.6-.6.6H5c-.4 0-.7-.3-.7-.6z"></path><path fill="none" stroke="#231f20" stroke-linecap="round" stroke-linejoin="round" stroke-miterlimit="10" stroke-width="1.5" d="M4.3 26.4V25c0-.4.3-.6.6-.6h.2c.4 0 .6.3.6.6v1.4c0 .4-.3.6-.6.6H5c-.4 0-.7-.3-.7-.6z"></path><path fill="#fff" d="M7.6 38.6H6c-.8 0-1.5-.7-1.5-1.5v-.4c0-.8.7-1.5 1.5-1.5h1.6c.8 0 1.5.7 1.5 1.5v.4c0 .8-.7 1.5-1.5 1.5zM13.6 38.6H12c-.8 0-1.5-.7-1.5-1.5v-.4c0-.8.7-1.5 1.5-1.5h1.6c.8 0 1.5.7 1.5 1.5v.4c0 .8-.7 1.5-1.5 1.5zM19.6 38.6H18c-.8 0-1.5-.7-1.5-1.5v-.4c0-.8.7-1.5 1.5-1.5h1.6c.8 0 1.5.7 1.5 1.5v.4c0 .8-.7 1.5-1.5 1.5zM25.6 38.6H24c-.8 0-1.5-.7-1.5-1.5v-.4c0-.8.7-1.5 1.5-1.5h1.6c.8 0 1.5.7 1.5 1.5v.4c0 .8-.7 1.5-1.5 1.5zM31.6 38.6H30c-.8 0-1.5-.7-1.5-1.5v-.4c0-.8.7-1.5 1.5-1.5h1.6c.8 0 1.5.7 1.5 1.5v.4c0 .8-.7 1.5-1.5 1.5zM7.6 43.5H6c-.8 0-1.5-.7-1.5-1.5v-.4c0-.8.7-1.5 1.5-1.5h1.6c.8 0 1.5.7 1.5 1.5v.4c0 .9-.7 1.5-1.5 1.5zM13.6 43.5H12c-.8 0-1.5-.7-1.5-1.5v-.4c0-.8.7-1.5 1.5-1.5h1.6c.8 0 1.5.7 1.5 1.5v.4c0 .9-.7 1.5-1.5 1.5zM19.6 43.5H18c-.8 0-1.5-.7-1.5-1.5v-.4c0-.8.7-1.5 1.5-1.5h1.6c.8 0 1.5.7 1.5 1.5v.4c0 .9-.7 1.5-1.5 1.5zM25.6 43.5H24c-.8 0-1.5-.7-1.5-1.5v-.4c0-.8.7-1.5 1.5-1.5h1.6c.8 0 1.5.7 1.5 1.5v.4c0 .9-.7 1.5-1.5 1.5zM31.6 43.5H30c-.8 0-1.5-.7-1.5-1.5v-.4c0-.8.7-1.5 1.5-1.5h1.6c.8 0 1.5.7 1.5 1.5v.4c0 .9-.7 1.5-1.5 1.5zM7.6 48.5H6c-.8 0-1.5-.7-1.5-1.5v-.4c0-.8.7-1.5 1.5-1.5h1.6c.8 0 1.5.7 1.5 1.5v.4c0 .8-.7 1.5-1.5 1.5zM13.6 48.5H12c-.8 0-1.5-.7-1.5-1.5v-.4c0-.8.7-1.5 1.5-1.5h1.6c.8 0 1.5.7 1.5 1.5v.4c0 .8-.7 1.5-1.5 1.5zM19.6 48.5H18c-.8 0-1.5-.7-1.5-1.5v-.4c0-.8.7-1.5 1.5-1.5h1.6c.8 0 1.5.7 1.5 1.5v.4c0 .8-.7 1.5-1.5 1.5zM25.6 48.5H24c-.8 0-1.5-.7-1.5-1.5v-.4c0-.8.7-1.5 1.5-1.5h1.6c.8 0 1.5.7 1.5 1.5v.4c0 .8-.7 1.5-1.5 1.5zM31.6 48.5H30c-.8 0-1.5-.7-1.5-1.5v-.4c0-.8.7-1.5 1.5-1.5h1.6c.8 0 1.5.7 1.5 1.5v.4c0 .8-.7 1.5-1.5 1.5z"></path><path fill="none" stroke="#231f20" stroke-linecap="round" stroke-linejoin="round" stroke-miterlimit="10" stroke-width="1.5" d="M7.6 38.6H6c-.8 0-1.5-.7-1.5-1.5v-.4c0-.8.7-1.5 1.5-1.5h1.6c.8 0 1.5.7 1.5 1.5v.4c0 .8-.7 1.5-1.5 1.5zM13.6 38.6H12c-.8 0-1.5-.7-1.5-1.5v-.4c0-.8.7-1.5 1.5-1.5h1.6c.8 0 1.5.7 1.5 1.5v.4c0 .8-.7 1.5-1.5 1.5zM19.6 38.6H18c-.8 0-1.5-.7-1.5-1.5v-.4c0-.8.7-1.5 1.5-1.5h1.6c.8 0 1.5.7 1.5 1.5v.4c0 .8-.7 1.5-1.5 1.5zM25.6 38.6H24c-.8 0-1.5-.7-1.5-1.5v-.4c0-.8.7-1.5 1.5-1.5h1.6c.8 0 1.5.7 1.5 1.5v.4c0 .8-.7 1.5-1.5 1.5zM31.6 38.6H30c-.8 0-1.5-.7-1.5-1.5v-.4c0-.8.7-1.5 1.5-1.5h1.6c.8 0 1.5.7 1.5 1.5v.4c0 .8-.7 1.5-1.5 1.5zM7.6 43.5H6c-.8 0-1.5-.7-1.5-1.5v-.4c0-.8.7-1.5 1.5-1.5h1.6c.8 0 1.5.7 1.5 1.5v.4c0 .9-.7 1.5-1.5 1.5zM13.6 43.5H12c-.8 0-1.5-.7-1.5-1.5v-.4c0-.8.7-1.5 1.5-1.5h1.6c.8 0 1.5.7 1.5 1.5v.4c0 .9-.7 1.5-1.5 1.5zM19.6 43.5H18c-.8 0-1.5-.7-1.5-1.5v-.4c0-.8.7-1.5 1.5-1.5h1.6c.8 0 1.5.7 1.5 1.5v.4c0 .9-.7 1.5-1.5 1.5zM25.6 43.5H24c-.8 0-1.5-.7-1.5-1.5v-.4c0-.8.7-1.5 1.5-1.5h1.6c.8 0 1.5.7 1.5 1.5v.4c0 .9-.7 1.5-1.5 1.5zM31.6 43.5H30c-.8 0-1.5-.7-1.5-1.5v-.4c0-.8.7-1.5 1.5-1.5h1.6c.8 0 1.5.7 1.5 1.5v.4c0 .9-.7 1.5-1.5 1.5zM7.6 48.5H6c-.8 0-1.5-.7-1.5-1.5v-.4c0-.8.7-1.5 1.5-1.5h1.6c.8 0 1.5.7 1.5 1.5v.4c0 .8-.7 1.5-1.5 1.5zM13.6 48.5H12c-.8 0-1.5-.7-1.5-1.5v-.4c0-.8.7-1.5 1.5-1.5h1.6c.8 0 1.5.7 1.5 1.5v.4c0 .8-.7 1.5-1.5 1.5zM19.6 48.5H18c-.8 0-1.5-.7-1.5-1.5v-.4c0-.8.7-1.5 1.5-1.5h1.6c.8 0 1.5.7 1.5 1.5v.4c0 .8-.7 1.5-1.5 1.5zM25.6 48.5H24c-.8 0-1.5-.7-1.5-1.5v-.4c0-.8.7-1.5 1.5-1.5h1.6c.8 0 1.5.7 1.5 1.5v.4c0 .8-.7 1.5-1.5 1.5zM31.6 48.5H30c-.8 0-1.5-.7-1.5-1.5v-.4c0-.8.7-1.5 1.5-1.5h1.6c.8 0 1.5.7 1.5 1.5v.4c0 .8-.7 1.5-1.5 1.5z"></path><path fill="none" stroke="#fff" stroke-linecap="round" stroke-miterlimit="10" stroke-width="1.5" d="M6.1 33.4c-1.2 0-2.2 1-2.2 2.2M4 36.7v.5M4 47.2v2.9"></path><g><path fill="#3768a4" d="M26.3 15.7h17.5c2.4 0 4.3 1.9 4.3 4.3v27.8c0 2.4-1.9 4.3-4.3 4.3H26.3c-2.4 0-4.3-1.9-4.3-4.3V20c0-2.4 1.9-4.3 4.3-4.3z"></path><path fill="#4d9ad4" d="M27.5 15.7h14.3c2.4 0 4.4 2 4.4 4.4v27.7c0 2.4-2 4.4-4.4 4.4H27.5V15.7z"></path><path fill="#fff" d="M39.1 33.9h-4.5c-1.5 0-2.7-1.2-2.7-2.7v-.7c0-1.5 1.2-2.7 2.7-2.7h4.5c1.5 0 2.7 1.2 2.7 2.7v.7c0 1.5-1.2 2.7-2.7 2.7z"></path><path fill="none" stroke="#231f20" stroke-linecap="round" stroke-linejoin="round" stroke-miterlimit="10" stroke-width="1.5" d="M39.1 33.9h-4.5c-1.5 0-2.7-1.2-2.7-2.7v-.7c0-1.5 1.2-2.7 2.7-2.7h4.5c1.5 0 2.7 1.2 2.7 2.7v.7c0 1.5-1.2 2.7-2.7 2.7z"></path><path fill="none" stroke="#231f20" stroke-linecap="round" stroke-linejoin="round" stroke-miterlimit="10" stroke-width="1.5" d="M26.3 15.7h17.5c2.4 0 4.3 1.9 4.3 4.3v27.9c0 2.4-1.9 4.3-4.3 4.3H26.3c-2.4 0-4.3-1.9-4.3-4.3V20c0-2.4 1.9-4.3 4.3-4.3z"></path><path fill="#fff" d="M26.8 15.7h.7v36.5h-.7c-2.7 0-4.8-2.2-4.8-4.8V20.5c0-2.7 2.2-4.8 4.8-4.8z"></path><path fill="#ffe4b8" d="M27 15.7h.5v36.5H27c-1.9 0-3.5-1.6-3.5-3.5V19.1c0-1.9 1.6-3.4 3.5-3.4z"></path><path fill="none" stroke="#231f20" stroke-linecap="round" stroke-linejoin="round" stroke-miterlimit="10" stroke-width="1.5" d="M26.8 15.7h.7v36.5h-.7c-2.7 0-4.8-2.2-4.8-4.8V20.5c0-2.7 2.2-4.8 4.8-4.8z"></path><path fill="#3768a4" d="M22.2 20.2h-1.3c-.4 0-.7-.3-.7-.7v-.2c0-.4.3-.7.7-.7h1.3c.4 0 .7.3.7.7v.2c0 .4-.3.7-.7.7z"></path><path fill="none" stroke="#231f20" stroke-linecap="round" stroke-linejoin="round" stroke-miterlimit="10" stroke-width="1.5" d="M22.2 20.2h-1.3c-.4 0-.7-.3-.7-.7v-.2c0-.4.3-.7.7-.7h1.3c.4 0 .7.3.7.7v.2c0 .4-.3.7-.7.7z"></path><path fill="#3768a4" d="M22.2 25h-1.3c-.4 0-.7-.3-.7-.7v-.2c0-.4.3-.7.7-.7h1.3c.4 0 .7.3.7.7v.2c0 .4-.3.7-.7.7z"></path><path fill="none" stroke="#231f20" stroke-linecap="round" stroke-linejoin="round" stroke-miterlimit="10" stroke-width="1.5" d="M22.2 25h-1.3c-.4 0-.7-.3-.7-.7v-.2c0-.4.3-.7.7-.7h1.3c.4 0 .7.3.7.7v.2c0 .4-.3.7-.7.7z"></path><path fill="#3768a4" d="M22.2 29.8h-1.3c-.4 0-.7-.3-.7-.7V29c0-.4.3-.7.7-.7h1.3c.4 0 .7.3.7.7v.2c0 .3-.3.6-.7.6z"></path><path fill="none" stroke="#231f20" stroke-linecap="round" stroke-linejoin="round" stroke-miterlimit="10" stroke-width="1.5" d="M22.2 29.8h-1.3c-.4 0-.7-.3-.7-.7V29c0-.4.3-.7.7-.7h1.3c.4 0 .7.3.7.7v.2c0 .3-.3.6-.7.6z"></path><path fill="#3768a4" d="M22.2 34.7h-1.3c-.4 0-.7-.3-.7-.7v-.2c0-.4.3-.7.7-.7h1.3c.4 0 .7.3.7.7v.2c0 .4-.3.7-.7.7z"></path><path fill="none" stroke="#231f20" stroke-linecap="round" stroke-linejoin="round" stroke-miterlimit="10" stroke-width="1.5" d="M22.2 34.7h-1.3c-.4 0-.7-.3-.7-.7v-.2c0-.4.3-.7.7-.7h1.3c.4 0 .7.3.7.7v.2c0 .4-.3.7-.7.7z"></path><g><path fill="#3768a4" d="M22.2 39.5h-1.3c-.4 0-.7-.3-.7-.7v-.2c0-.4.3-.7.7-.7h1.3c.4 0 .7.3.7.7v.2c0 .4-.3.7-.7.7z"></path><path fill="none" stroke="#231f20" stroke-linecap="round" stroke-linejoin="round" stroke-miterlimit="10" stroke-width="1.5" d="M22.2 39.5h-1.3c-.4 0-.7-.3-.7-.7v-.2c0-.4.3-.7.7-.7h1.3c.4 0 .7.3.7.7v.2c0 .4-.3.7-.7.7z"></path></g><g><path fill="#3768a4" d="M22.2 44.3h-1.3c-.4 0-.7-.3-.7-.7v-.2c0-.4.3-.7.7-.7h1.3c.4 0 .7.3.7.7v.2c0 .4-.3.7-.7.7z"></path><path fill="none" stroke="#231f20" stroke-linecap="round" stroke-linejoin="round" stroke-miterlimit="10" stroke-width="1.5" d="M22.2 44.3h-1.3c-.4 0-.7-.3-.7-.7v-.2c0-.4.3-.7.7-.7h1.3c.4 0 .7.3.7.7v.2c0 .4-.3.7-.7.7z"></path></g><g><path fill="#3768a4" d="M22.2 49.2h-1.3c-.4 0-.7-.3-.7-.7v-.2c0-.4.3-.7.7-.7h1.3c.4 0 .7.3.7.7v.2c0 .4-.3.7-.7.7z"></path><path fill="none" stroke="#231f20" stroke-linecap="round" stroke-linejoin="round" stroke-miterlimit="10" stroke-width="1.5" d="M22.2 49.2h-1.3c-.4 0-.7-.3-.7-.7v-.2c0-.4.3-.7.7-.7h1.3c.4 0 .7.3.7.7v.2c0 .4-.3.7-.7.7z"></path></g><path fill="none" stroke="#fff" stroke-linecap="round" stroke-miterlimit="10" stroke-width="1.5" d="M29.1 31.6v3M31.2 17C30 17 29 18 29 19.3M29.1 20.5v.5"></path></g><g><path fill="#fff" d="M55.6 52.2H43.1c-2 0-3.7-1.6-3.7-3.7V30.4c0-2 1.6-3.7 3.7-3.7h12.5c2 0 3.7 1.6 3.7 3.7v18.1c0 2-1.7 3.7-3.7 3.7z"></path><path fill="#e7d0a8" d="M57.1 52.2h-5.9c-3 0-5.4-2.4-5.4-5.4V32.1c0-3 2.4-5.4 5.4-5.4h5.9c3 0 5.4 2.4 5.4 5.4v14.7c0 3-2.4 5.4-5.4 5.4z"></path><path fill="#ffe4b8" d="M57.3 52.2H44.2c-1.7 0-3.2-1.4-3.2-3.2V29.9c0-1.7 1.4-3.2 3.2-3.2h13.1c1.7 0 3.2 1.4 3.2 3.2V49c0 1.8-1.4 3.2-3.2 3.2z"></path><path fill="none" stroke="#231f20" stroke-linecap="round" stroke-linejoin="round" stroke-miterlimit="10" stroke-width="1.5" d="M58.8 52.2H43.1c-2 0-3.7-1.7-3.7-3.7V30.4c0-2 1.7-3.7 3.7-3.7h15.7c2 0 3.7 1.7 3.7 3.7v18.1c0 2-1.7 3.7-3.7 3.7z"></path><path fill="#fff" d="M42.1 29.5H44v5.1h-1.9z"></path><path fill="#3768a4" d="M58 29.5h1.9v5.1H58z"></path><path fill="#4d9ad4" d="M43.7 29.5h14.6v5.1H43.7z"></path><path fill="none" stroke="#231f20" stroke-linecap="round" stroke-linejoin="round" stroke-miterlimit="10" stroke-width="1.5" d="M42.1 29.5h17.8v5.1H42.1z"></path><path fill="#fff" d="M56.5 48.8h-.2c-.5 0-.8-.4-.8-.8v-9.6c0-.5.4-.8.8-.8h.2c.5 0 .8.4.8.8V48c0 .5-.4.8-.8.8z"></path><path fill="#5bb947" d="M58.9 48.8h-.3c-.5 0-1-.4-1-1v-9.3c0-.5.4-1 1-1h.3c.5 0 1 .4 1 1v9.3c0 .6-.5 1-1 1z"></path><path fill="#80c244" d="M57.4 48.8h-.2c-.5 0-.8-.4-.8-.8v-9.6c0-.5.4-.8.8-.8h.2c.5 0 .8.4.8.8V48c.1.5-.3.8-.8.8z"></path><path fill="none" stroke="#231f20" stroke-linecap="round" stroke-linejoin="round" stroke-miterlimit="10" stroke-width="1.5" d="M57.8 48.8h-.6c-1.2 0-2.1-.9-2.1-2.1v-7.1c0-1.2.9-2.1 2.1-2.1h.6c1.2 0 2.1.9 2.1 2.1v7.1c0 1.2-1 2.1-2.1 2.1z"></path><path fill="#fff" d="M49.9 42.3h-.2c-.5 0-.8-.4-.8-.8v-3.1c0-.5.4-.8.8-.8h.2c.5 0 .8.4.8.8v3.1c.1.5-.3.8-.8.8z"></path><path fill="#3768a4" d="M52.4 42.3h-.3c-.5 0-1-.4-1-1v-2.8c0-.5.4-1 1-1h.3c.5 0 1 .4 1 1v2.8c0 .6-.5 1-1 1z"></path><path fill="#4d9ad4" d="M50.9 42.3h-.2c-.5 0-.8-.4-.8-.8v-3.1c0-.5.4-.8.8-.8h.2c.5 0 .8.4.8.8v3.1c0 .5-.4.8-.8.8z"></path><path fill="none" stroke="#231f20" stroke-linecap="round" stroke-linejoin="round" stroke-miterlimit="10" stroke-width="1.5" d="M51.3 42.3h-.6c-1.2 0-2.1-.9-2.1-2.1v-.6c0-1.2.9-2.1 2.1-2.1h.6c1.2 0 2.1.9 2.1 2.1v.6c0 1.2-1 2.1-2.1 2.1z"></path><path fill="#fff" d="M43.4 42.3h-.2c-.5 0-.8-.4-.8-.8v-3.1c0-.5.4-.8.8-.8h.2c.5 0 .8.4.8.8v3.1c0 .5-.3.8-.8.8z"></path><path fill="#3768a4" d="M45.8 42.3h-.3c-.5 0-1-.4-1-1v-2.8c0-.5.4-1 1-1h.3c.5 0 1 .4 1 1v2.8c0 .6-.4 1-1 1z"></path><path fill="#4d9ad4" d="M44.4 42.3h-.2c-.5 0-.8-.4-.8-.8v-3.1c0-.5.4-.8.8-.8h.2c.5 0 .8.4.8.8v3.1c0 .5-.4.8-.8.8z"></path><path fill="none" stroke="#231f20" stroke-linecap="round" stroke-linejoin="round" stroke-miterlimit="10" stroke-width="1.5" d="M44.7 42.3h-.6c-1.2 0-2.1-.9-2.1-2.1v-.6c0-1.2.9-2.1 2.1-2.1h.6c1.2 0 2.1.9 2.1 2.1v.6c0 1.2-.9 2.1-2.1 2.1z"></path><path fill="#fff" d="M43.4 48.8h-.2c-.5 0-.8-.4-.8-.8v-3.1c0-.5.4-.8.8-.8h.2c.5 0 .8.4.8.8V48c0 .5-.3.8-.8.8z"></path><path fill="#3768a4" d="M45.8 48.8h-.3c-.5 0-1-.4-1-1V45c0-.5.4-1 1-1h.3c.5 0 1 .4 1 1v2.8c0 .6-.4 1-1 1z"></path><path fill="#4d9ad4" d="M44.4 48.8h-.2c-.5 0-.8-.4-.8-.8v-3.1c0-.5.4-.8.8-.8h.2c.5 0 .8.4.8.8V48c0 .5-.4.8-.8.8z"></path><path fill="none" stroke="#231f20" stroke-linecap="round" stroke-linejoin="round" stroke-miterlimit="10" stroke-width="1.5" d="M44.7 48.8h-.6c-1.2 0-2.1-.9-2.1-2.1v-.6c0-1.2.9-2.1 2.1-2.1h.6c1.2 0 2.1.9 2.1 2.1v.6c0 1.2-.9 2.1-2.1 2.1z"></path><g><path fill="#fff" d="M49.9 48.8h-.2c-.5 0-.8-.4-.8-.8v-3.1c0-.5.4-.8.8-.8h.2c.5 0 .8.4.8.8V48c.1.5-.3.8-.8.8z"></path><path fill="#3768a4" d="M52.4 48.8h-.3c-.5 0-1-.4-1-1V45c0-.5.4-1 1-1h.3c.5 0 1 .4 1 1v2.8c0 .6-.5 1-1 1z"></path><path fill="#4d9ad4" d="M50.9 48.8h-.2c-.5 0-.8-.4-.8-.8v-3.1c0-.5.4-.8.8-.8h.2c.5 0 .8.4.8.8V48c0 .5-.4.8-.8.8z"></path><path fill="none" stroke="#231f20" stroke-linecap="round" stroke-linejoin="round" stroke-miterlimit="10" stroke-width="1.5" d="M51.3 48.8h-.6c-1.2 0-2.1-.9-2.1-2.1v-.6c0-1.2.9-2.1 2.1-2.1h.6c1.2 0 2.1.9 2.1 2.1v.6c0 1.2-1 2.1-2.1 2.1z"></path></g><path fill="none" stroke="#231f20" stroke-linecap="round" stroke-linejoin="round" stroke-miterlimit="10" stroke-width="1.5" d="M50.1 39.9h1.8M50.1 46.4h1.8"></path><g><path fill="none" stroke="#231f20" stroke-linecap="round" stroke-linejoin="round" stroke-miterlimit="10" stroke-width="1.5" d="M44.4 40.8V39M43.5 39.9h1.8"></path></g><g><path fill="none" stroke="#231f20" stroke-linecap="round" stroke-linejoin="round" stroke-miterlimit="10" stroke-width="1.5" d="M43.8 47.1l1.3-1.3M43.8 45.8l1.3 1.3"></path></g><g><path fill="none" stroke="#231f20" stroke-linecap="round" stroke-linejoin="round" stroke-miterlimit="10" stroke-width="1.5" d="M56.6 42.5h1.8M56.6 43.9h1.8"></path></g><g><circle cx="51" cy="45.3" r=".4" fill="#231f20"></circle><circle cx="51" cy="47.6" r=".4" fill="#231f20"></circle></g></g></svg>